# xmcd
#
# Track frame offsets:
#	150
#	10351
#	34806
#	72513
#	106133
#	136046
#	163486
#	200923
#	225748
#	252528
#
# Disc length: 4128 seconds
#
# Revision: 0
# Processed by: cddbd v1.5.1PL0 Copyright (c) Steve Scherf et al.
# Submitted via: dBpowerAMP V4.0
#
DISCID=92101e0a
DTITLE=John Mayall and The Bluesbreakers - Live 1969 [CD 1)
DYEAR=1999
DGENRE=Blues
TTITLE0=Parchman Farm
TTITLE1=Don't Waste My Time
TTITLE2=Sleeping By Her Side
TTITLE3=Room To Move
TTITLE4=Saw  Mill Gulch Road
TTITLE5=Can´t Sleep This Night
TTITLE6=Thoughts About Roxanne
TTITLE7=I'm Gonna Fight For You JB
TTITLE8=I´m Gonna Fight For You JB
TTITLE9=California
EXTD=
EXTT0=
EXTT1=
EXTT2=
EXTT3=
EXTT4=
EXTT5=
EXTT6=
EXTT7=
EXTT8=
EXTT9=
PLAYORDER=
